<svg width="64" height="65" viewBox="0 0 64 65" fill="none" xmlns="http://www.w3.org/2000/svg">
<mask id="mask0_8_5447" style="mask-type:luminance" maskUnits="userSpaceOnUse" x="0" y="0" width="64" height="65">
<path d="M0.057251 0.802063H63.302V64.0469H0.057251V0.802063Z" fill="white"/>
</mask>
<g mask="url(#mask0_8_5447)">
<mask id="mask1_8_5447" style="mask-type:luminance" maskUnits="userSpaceOnUse" x="0" y="0" width="64" height="65">
<path d="M31.677 0.802063C14.2135 0.802063 0.057251 14.9583 0.057251 32.4271C0.057251 49.8906 14.2135 64.0469 31.677 64.0469C49.1458 64.0469 63.302 49.8906 63.302 32.4271C63.302 14.9583 49.1458 0.802063 31.677 0.802063Z" fill="white"/>
</mask>
<g mask="url(#mask1_8_5447)">
<path d="M0.057251 0.802063H63.302V64.0469H0.057251V0.802063Z" fill="#FFC0CB"/>
</g>
</g>
<mask id="mask2_8_5447" style="mask-type:luminance" maskUnits="userSpaceOnUse" x="17" y="15" width="30" height="13">
<path d="M17.6666 15.8125H47V28H17.6666V15.8125Z" fill="white"/>
</mask>
<g mask="url(#mask2_8_5447)">
<path d="M19.1093 26.6979V22.2813C19.1093 19.901 21.0468 17.9635 23.427 17.9635H25.7135C25.9166 18.6198 26.526 19.099 27.2448 19.099H36.1093C36.8333 19.099 37.4427 18.6198 37.6458 17.9635H39.9323C42.3125 17.9635 44.25 19.901 44.25 22.2813V26.6979H45.6875V22.2813C45.6875 19.1094 43.1041 16.526 39.9323 16.526H37.401C37.1041 16.1302 36.6406 15.875 36.1093 15.875H27.2448C26.7135 15.875 26.25 16.1302 25.9531 16.526H23.427C20.25 16.526 17.6666 19.1094 17.6666 22.2813V26.7031H19.1093V26.6979Z" fill="#333333"/>
</g>
<mask id="mask3_8_5447" style="mask-type:luminance" maskUnits="userSpaceOnUse" x="12" y="26" width="39" height="23">
<path d="M12.6979 26.6667H50.677V48.7969H12.6979V26.6667Z" fill="white"/>
</mask>
<g mask="url(#mask3_8_5447)">
<path d="M48.8593 27.6042H14.5C13.5052 27.6042 12.6979 28.4114 12.6979 29.4114C12.6979 30.4062 13.5052 31.2135 14.5 31.2135H14.9739C15.4739 34.0417 17.0156 42.625 17.7291 45.2812C18.5833 48.4427 19.5781 49.0104 21.9427 49.0104L40.7187 49.0052L41.4166 49.0104C43.7812 49.0104 44.7708 48.4427 45.625 45.2812C46.3437 42.6302 47.8854 34.0417 48.3854 31.2135H48.8593C49.8541 31.2135 50.6614 30.4062 50.6614 29.4114C50.6614 28.4114 49.8541 27.6042 48.8593 27.6042ZM44.9687 28.5469C45.4427 28.5469 45.8333 28.9323 45.8333 29.4114C45.8333 29.8854 45.4479 30.276 44.9687 30.276C44.4895 30.276 44.1041 29.8854 44.1041 29.4114C44.1041 28.9323 44.4895 28.5469 44.9687 28.5469ZM32.3958 31.2135H40.5L39.7083 35.2708H32.3958V31.2135ZM18.3906 28.5469C18.8645 28.5469 19.2552 28.9323 19.2552 29.4114C19.2552 29.8854 18.8698 30.276 18.3906 30.276C17.9114 30.276 17.526 29.8854 17.526 29.4114C17.526 28.9323 17.9114 28.5469 18.3906 28.5469ZM17.1666 31.2135H21.3906L22.1823 35.2708H17.901C17.6041 33.651 17.3385 32.1927 17.1666 31.2135ZM19.0468 41.276C18.7656 39.8698 18.4583 38.2656 18.1666 36.7083H22.4635L23.3541 41.276H19.0468ZM22.6406 46.8437L21.9427 46.8489C20.5052 46.8489 20.3906 46.8489 19.8125 44.7135C19.6875 44.2396 19.526 43.5417 19.3489 42.7135H23.6354L24.4427 46.8437H22.6406ZM30.9583 46.8437H25.9114L25.1041 42.7187H30.9583V46.8437ZM30.9583 41.276H24.8229L23.927 36.7083H30.9583V41.276ZM30.9583 35.2708H23.6458L22.8541 31.2135H30.9583V35.2708ZM37.4479 46.8489L32.3958 46.8437V42.7187H38.2552L37.4479 46.8489ZM32.3958 41.276V36.7083H39.427L38.5364 41.276H32.3958ZM43.5416 44.7187C42.9687 46.8437 42.8489 46.8489 41.4218 46.8489C41.4218 46.8489 41.4218 46.8489 41.4166 46.8489H38.9166L39.7239 42.7187H44.0104C43.8333 43.5417 43.6718 44.2396 43.5416 44.7187ZM44.3073 41.276H40.0052L40.8958 36.7083H45.1927C44.901 38.2656 44.5937 39.8698 44.3073 41.276ZM45.4583 35.2708H41.177L41.9687 31.2135H46.1927C46.0156 32.1927 45.7552 33.651 45.4583 35.2708Z" fill="#333333"/>
</g>
</svg>
