<svg width="54" height="54" viewBox="0 0 54 54" fill="none" xmlns="http://www.w3.org/2000/svg">
<path d="M27.8698 11.3021C30.1407 10.8958 32.4792 11.0937 34.6563 11.8854C37.099 12.7656 39.224 14.3542 40.7605 16.4479C42.3021 18.5364 43.1823 21.0365 43.3021 23.625C43.4063 25.9375 42.8959 28.2292 41.8282 30.2708C41.6146 30.6823 41.0938 30.8073 40.698 30.5677C40.2969 30.3281 40.1771 29.8125 40.3855 29.401C41.2813 27.6458 41.7084 25.6823 41.6198 23.7031C41.5209 21.4427 40.7501 19.2604 39.4063 17.4427C38.0678 15.6198 36.2136 14.2344 34.0834 13.4635C32.2188 12.7865 30.2188 12.6094 28.2709 12.9375C27.8126 13.0156 27.3594 12.7448 27.2448 12.2917C27.1355 11.8437 27.4115 11.3854 27.8698 11.3021Z" fill="black"/>
<path d="M29.2136 16.7917C30.3959 16.6354 31.6042 16.7656 32.7344 17.1771C34.1251 17.6823 35.3386 18.5885 36.2136 19.7812C37.0938 20.9739 37.599 22.3958 37.6615 23.875C37.7188 25.0729 37.4792 26.2656 36.9792 27.3437C36.7865 27.7656 36.2657 27.8906 35.8698 27.651C35.474 27.4115 35.3542 26.8958 35.5365 26.4739C35.8698 25.6771 36.0261 24.8177 35.9896 23.9531C35.9375 22.8021 35.5469 21.6979 34.8646 20.7708C34.1823 19.8437 33.2396 19.1458 32.1615 18.75C31.3438 18.4583 30.474 18.3489 29.6146 18.4323C29.1563 18.4739 28.7032 18.2083 28.5886 17.7604C28.4792 17.3073 28.7553 16.8489 29.2136 16.7917Z" fill="black"/>
<path fill-rule="evenodd" clip-rule="evenodd" d="M31.4844 43.9375C31.4011 43.9323 31.323 43.9271 31.2396 43.9219C28.2136 43.6719 25.2657 42.7969 22.5886 41.3542C19.8282 39.8646 17.4167 37.7969 15.5209 35.2969C13.625 32.7969 12.2865 29.9167 11.5938 26.8542C10.9532 24.0052 10.8855 21.0521 11.4011 18.1771C11.7448 15.7865 13.2761 13.7865 15.3698 12.7812C17.4011 11.8073 19.3542 13.0573 20.2813 14.3698L23.6146 19.0833C24.5417 20.401 25.0625 22.6615 23.4636 24.25C22.4792 25.224 21.2136 25.9115 19.8021 26.1875C20.2761 27.7031 21.0157 29.1302 21.9792 30.4062C22.9584 31.6979 24.1615 32.8073 25.5261 33.6875C26.0469 32.625 26.8282 31.7187 27.7813 31.0365C29.5157 29.8021 31.5521 30.5781 32.6771 31.6302L36.974 35.651C38.1407 36.7448 39.1094 38.8229 37.8907 40.7031C36.625 42.6562 34.4167 43.9531 31.9115 43.9531C31.8125 43.9531 31.7188 43.9479 31.6198 43.9479C31.6042 43.9479 31.5938 43.9479 31.5782 43.9427C31.5625 43.9427 31.5469 43.9427 31.5365 43.9427L31.4844 43.9375ZM31.6355 42.5052C31.724 42.5104 31.8178 42.5156 31.9115 42.5156C33.9115 42.5156 35.6719 41.4792 36.6823 39.9167C37.3594 38.875 36.9011 37.5521 35.9896 36.7031L31.6928 32.6823C30.8386 31.8802 29.573 31.5312 28.6146 32.2083C27.6094 32.9271 26.849 33.9583 26.4792 35.1667C26.3855 35.474 26.0417 35.6458 25.7605 35.4948C23.8334 34.4531 22.1563 33.0156 20.8334 31.2708C19.7032 29.7865 18.8594 28.1042 18.3334 26.3125C18.3334 26.3021 18.3282 26.2917 18.3282 26.2812C18.2396 25.9896 18.1667 25.6927 18.099 25.3906C18.0938 25.3802 18.0938 25.3698 18.0886 25.3542C18.0886 25.3437 18.0834 25.3333 18.0834 25.3229C18.0782 25.3021 18.073 25.276 18.0678 25.2552C18.0469 25.1615 18.0261 25.0729 18.0105 24.9792L18.0053 24.9583C17.9948 24.9062 18.0365 24.8594 18.0938 24.8646C18.2032 24.8698 18.323 24.875 18.4375 24.875H18.448C18.4792 24.875 18.5105 24.875 18.5469 24.875C18.849 24.8698 19.1459 24.8385 19.4375 24.7917C20.6042 24.5833 21.6459 24.026 22.448 23.2292C23.3438 22.3437 23.1615 20.9427 22.4375 19.9115L19.1094 15.1979C18.3855 14.1771 17.125 13.5365 15.9896 14.0781C14.3125 14.8854 13.0886 16.4896 12.823 18.4062C12.3386 21.099 12.3959 23.8646 13 26.5417C13.6459 29.401 14.8959 32.0885 16.6667 34.4271C18.4375 36.7656 20.6928 38.6927 23.2761 40.0885C25.7761 41.4375 28.5261 42.2552 31.3594 42.4844C31.4323 42.4948 31.5105 42.5 31.5834 42.5052H31.6355Z" fill="black"/>
<mask id="mask0_30_10750" style="mask-type:luminance" maskUnits="userSpaceOnUse" x="0" y="0" width="54" height="54">
<path d="M0.744751 0.401031H53.7187V53.375H0.744751V0.401031Z" fill="white"/>
</mask>
<g mask="url(#mask0_30_10750)">
<path fill-rule="evenodd" clip-rule="evenodd" d="M27.2343 53.375C41.8645 53.375 53.7187 41.5156 53.7187 26.8906C53.7187 12.2604 41.8645 0.401031 27.2343 0.401031C12.6041 0.401031 0.744751 12.2604 0.744751 26.8906C0.744751 41.5156 12.6041 53.375 27.2343 53.375ZM52.2812 26.8906C52.2812 40.7239 41.0677 51.9375 27.2343 51.9375C13.401 51.9375 2.18746 40.7239 2.18746 26.8906C2.18746 13.0573 13.401 1.84374 27.2343 1.84374C41.0677 1.84374 52.2812 13.0573 52.2812 26.8906Z" fill="black"/>
</g>
</svg>
