<svg width="39" height="39" viewBox="0 0 39 39" fill="none" xmlns="http://www.w3.org/2000/svg">
<mask id="mask0_22_1439" style="mask-type:luminance" maskUnits="userSpaceOnUse" x="0" y="0" width="39" height="39">
<path d="M0.630127 0.911469H38.6145V38.8906H0.630127V0.911469Z" fill="white"/>
</mask>
<g mask="url(#mask0_22_1439)">
<path d="M26.9426 27.6823C27.5051 28.3854 26.828 29.1719 26.5051 29.4688C26.0885 29.8646 25.5468 30.1875 24.8905 30.4323C24.552 30.5625 24.2864 30.6354 24.0364 30.6667L23.8853 30.6875C23.2395 30.7552 22.5103 30.6927 21.6562 30.5052C19.9635 30.1458 18.3958 29.1198 16.8489 27.3854C16.6145 27.1563 14.8541 25.3958 13.7291 22.9115C12.5989 20.3958 12.4583 17.9323 12.4426 17.6615C12.1666 15.2917 12.453 13.4427 13.2864 11.9427C13.7499 11.125 14.2291 10.5 14.7499 10.0573C14.9322 9.89064 15.1718 9.73959 15.4947 9.56772C16.0989 9.26564 16.6874 9.07814 17.2343 9.02084C17.5833 8.98959 18.7551 8.95834 18.9062 9.87501L19.0624 11.4531C19.1301 12.1511 19.2812 13.9271 19.2812 13.9271C19.3958 15.0521 19.2603 15.6458 18.1666 15.7969C18.0833 15.8021 18.0051 15.7917 17.901 15.7917C17.6562 15.7656 17.4322 15.75 17.2343 15.75L16.4374 15.7604L16.4583 16.5521C16.4791 17.4427 16.7916 19.7344 17.4687 21.2448C18.0989 22.6354 19.5468 24.4115 20.3124 25.1094L20.901 25.6458L21.4322 25.0469C21.552 24.9063 21.6874 24.7396 21.7603 24.6354C21.8958 24.4583 21.9583 24.3698 22.0155 24.3281C22.2968 24.0886 22.552 23.9531 22.8124 23.9271C23.3176 23.8802 23.6978 24.2448 24.1405 24.7292L26.9426 27.6823ZM38.6145 19.9011C38.6145 30.375 30.1145 38.875 19.6249 38.875C9.13533 38.875 0.630127 30.375 0.630127 19.9011C0.630127 9.42709 9.13533 0.927094 19.6249 0.927094C30.1145 0.927094 38.6145 9.42709 38.6145 19.9011ZM35.7291 19.9011C35.7291 11.0156 28.5155 3.81251 19.6249 3.81251C10.7291 3.81251 3.52075 11.0156 3.52075 19.9011C3.52075 28.7865 10.7291 35.9896 19.6249 35.9896C28.5155 35.9896 35.7291 28.7865 35.7291 19.9011Z" fill="black"/>
</g>
</svg>
