<svg width="42" height="31" viewBox="0 0 42 31" fill="none" xmlns="http://www.w3.org/2000/svg">
<mask id="mask0_22_1416" style="mask-type:luminance" maskUnits="userSpaceOnUse" x="0" y="0" width="42" height="31">
<path d="M0.223877 0.989594H41.2083V30.974H0.223877V0.989594Z" fill="white"/>
</mask>
<g mask="url(#mask0_22_1416)">
<path d="M37.0885 0.989594H4.34367C3.802 0.989594 3.28117 1.09376 2.78117 1.30209C2.27596 1.51043 1.83325 1.80209 1.45304 2.18751C1.06763 2.57293 0.770752 3.01564 0.562419 3.51564C0.354085 4.01564 0.255127 4.53647 0.255127 5.07814V26.8854C0.255127 27.4271 0.354085 27.9479 0.562419 28.4531C0.770752 28.9531 1.06763 29.3958 1.45304 29.7761C1.83325 30.1615 2.27596 30.4583 2.78117 30.6667C3.28117 30.8698 3.802 30.974 4.34367 30.974H37.0885C37.6301 30.974 38.151 30.8698 38.651 30.6667C39.151 30.4583 39.5937 30.1615 39.9791 29.7761C40.3645 29.3958 40.6614 28.9531 40.8645 28.4531C41.0728 27.9479 41.177 27.4271 41.177 26.8854V5.07814C41.177 4.53647 41.0728 4.01564 40.8645 3.51564C40.6614 3.01564 40.3645 2.57293 39.9791 2.18751C39.5937 1.80209 39.151 1.51043 38.651 1.30209C38.151 1.09376 37.6301 0.989594 37.0885 0.989594ZM2.97909 5.31772L14.302 15.0104L2.97909 26.3229V5.31772ZM21.6041 16.1511C21.3489 16.375 21.052 16.4844 20.7135 16.4844C20.3801 16.4844 20.0833 16.375 19.828 16.1511L5.302 3.71355H36.1301L21.6041 16.1511ZM16.3801 16.7917L18.052 18.2188C18.427 18.5261 18.8437 18.7656 19.302 18.9271C19.7603 19.0886 20.2291 19.1719 20.7135 19.1719C21.203 19.1719 21.6718 19.0886 22.1301 18.9271C22.5885 18.7656 23.0051 18.5261 23.3801 18.2188L25.052 16.7865L36.5208 28.25H4.91138L16.3801 16.7917ZM27.1301 15.0156L38.4478 5.31772V26.3229L27.1301 15.0156Z" fill="black"/>
</g>
</svg>
