<svg width="63" height="63" viewBox="0 0 63 63" fill="none" xmlns="http://www.w3.org/2000/svg">
<mask id="mask0_33_10753" style="mask-type:luminance" maskUnits="userSpaceOnUse" x="14" y="11" width="37" height="14">
<path d="M14.6667 11.5625H50.6667V25H14.6667V11.5625Z" fill="white"/>
</mask>
<g mask="url(#mask0_33_10753)">
<path d="M17.0783 24.8594V19.4583C17.0783 16.5469 19.4429 14.1823 22.3543 14.1823H25.146C25.396 14.9844 26.1408 15.5729 27.021 15.5729H37.8543C38.7397 15.5729 39.4793 14.9844 39.7293 14.1823H42.5262C45.4377 14.1823 47.8022 16.5469 47.8022 19.4583V24.8594H49.5627V19.4583C49.5627 15.5781 46.4064 12.4219 42.5262 12.4219H39.4325C39.0731 11.9427 38.5054 11.6302 37.8543 11.6302H27.021C26.3752 11.6302 25.8022 11.9427 25.4429 12.4271H22.3543C18.4741 12.4271 15.3179 15.5833 15.3179 19.4583V24.8594H17.0783Z" fill="#333333"/>
</g>
<mask id="mask1_33_10753" style="mask-type:luminance" maskUnits="userSpaceOnUse" x="9" y="25" width="47" height="28">
<path d="M9.2395 25H55.2187V52.5417H9.2395V25Z" fill="white"/>
</mask>
<g mask="url(#mask1_33_10753)">
<path d="M53.4322 25.9688H11.4426C10.2239 25.9688 9.2395 26.9531 9.2395 28.1719C9.2395 29.3906 10.2239 30.375 11.4426 30.375H12.0208C12.6353 33.8333 14.5155 44.3229 15.3905 47.5677C16.4374 51.4323 17.651 52.125 20.5364 52.125L43.4843 52.1198L44.3385 52.125C47.2291 52.125 48.4426 51.4323 49.4843 47.5677C50.3593 44.3281 52.2447 33.8333 52.8541 30.375H53.4322C54.651 30.375 55.6353 29.3906 55.6353 28.1719C55.6353 26.9531 54.651 25.9688 53.4322 25.9688ZM48.677 27.1146C49.2603 27.1146 49.7343 27.5885 49.7343 28.1719C49.7343 28.7552 49.2655 29.2292 48.677 29.2292C48.0937 29.2292 47.6249 28.7552 47.6249 28.1719C47.6249 27.5885 48.0989 27.1146 48.677 27.1146ZM33.3176 30.375H43.2187L42.2499 35.3333H33.3176V30.375ZM16.1978 27.1146C16.7812 27.1146 17.2551 27.5885 17.2551 28.1719C17.2551 28.7552 16.7812 29.2292 16.1978 29.2292C15.6145 29.2292 15.1405 28.7552 15.1405 28.1719C15.1405 27.5885 15.6145 27.1146 16.1978 27.1146ZM14.703 30.375H19.8645L20.8333 35.3333H15.5989C15.2343 33.3594 14.9114 31.5729 14.703 30.375ZM17.0051 42.6771C16.6562 40.9531 16.2812 38.9948 15.9218 37.0938H21.177L22.2655 42.6771H17.0051ZM21.3905 49.4792L20.5364 49.4844C18.7864 49.4844 18.6405 49.4844 17.9374 46.875C17.7812 46.2917 17.5885 45.4427 17.3697 44.4323H22.6093L23.5937 49.4792H21.3905ZM31.5572 49.4792H25.3853L24.401 44.4323H31.5572V49.4792ZM31.5572 42.6771H24.0572L22.9687 37.0938H31.5572V42.6771ZM31.5572 35.3333H22.6249L21.6562 30.375H31.5572V35.3333ZM39.4895 49.4844L33.3176 49.4792V44.4323H40.4739L39.4895 49.4844ZM33.3176 42.6771V37.0938H41.9114L40.8176 42.6771H33.3176ZM46.9374 46.8802C46.2343 49.4792 46.0937 49.4844 44.3489 49.4844C44.3437 49.4844 44.3437 49.4844 44.3385 49.4844H41.2812L42.2655 44.4375H47.5051C47.2916 45.4427 47.0937 46.2917 46.9374 46.8802ZM47.8749 42.6771H42.6093L43.703 37.0938H48.953C48.5989 38.9948 48.2187 40.9583 47.8749 42.6771ZM49.276 35.3333H44.0468L45.0155 30.375H50.177C49.9635 31.5729 49.6405 33.3594 49.276 35.3333Z" fill="#333333"/>
</g>
<mask id="mask2_33_10753" style="mask-type:luminance" maskUnits="userSpaceOnUse" x="0" y="0" width="63" height="63">
<path d="M0 0H62.9688V62.9688H0V0Z" fill="white"/>
</mask>
<g mask="url(#mask2_33_10753)">
<mask id="mask3_33_10753" style="mask-type:luminance" maskUnits="userSpaceOnUse" x="0" y="0" width="64" height="64">
<path d="M31.6146 0C14.1563 0 0 14.1563 0 31.6146C0 49.0781 14.1563 63.2344 31.6146 63.2344C49.0781 63.2344 63.2344 49.0781 63.2344 31.6146C63.2344 14.1563 49.0781 0 31.6146 0Z" fill="white"/>
</mask>
<g mask="url(#mask3_33_10753)">
<path d="M31.6146 0C14.1562 0 0 14.1562 0 31.6146C0 49.0781 14.1562 63.2344 31.6146 63.2344C49.0781 63.2344 63.2344 49.0781 63.2344 31.6146C63.2344 14.1562 49.0781 0 31.6146 0Z" stroke="black" stroke-width="1.99902"/>
</g>
</g>
</svg>
