<svg width="30" height="30" viewBox="0 0 30 30" fill="none" xmlns="http://www.w3.org/2000/svg">
<mask id="mask0_33_10755" style="mask-type:luminance" maskUnits="userSpaceOnUse" x="0" y="0" width="30" height="30">
<path d="M0.109375 0.145828H29.099V29.1302H0.109375V0.145828Z" fill="white"/>
</mask>
<g mask="url(#mask0_33_10755)">
<path d="M14.5781 0.145828C6.58854 0.145828 0.109375 6.62499 0.109375 14.6146C0.109375 22.6094 6.58854 29.0833 14.5781 29.0833C22.5729 29.0833 29.0521 22.6094 29.0521 14.6146C29.0521 6.62499 22.5729 0.145828 14.5781 0.145828ZM20.7813 9.36458V20.8021C20.7813 21.9427 19.8542 22.8698 18.7135 22.8698H10.4479C9.30729 22.8698 8.38021 21.9427 8.38021 20.8021V9.36458C7.61979 9.36458 7.00521 8.74999 7.00521 7.98958C7.00521 7.22916 7.61979 6.60937 8.38021 6.60937H11.1927C11.3802 6.60937 11.5521 6.53645 11.6823 6.41145L12.6563 5.4375C12.7865 5.30729 12.9583 5.23437 13.1458 5.23437H16.0156C16.1979 5.23437 16.375 5.30729 16.5052 5.4375L17.4792 6.41145C17.6094 6.53645 17.7813 6.60937 17.9635 6.60937H20.7813C21.5417 6.60937 22.1563 7.22916 22.1563 7.98958C22.1563 8.74999 21.5417 9.36458 20.7813 9.36458Z" fill="#FF3131"/>
</g>
<path d="M12.1665 10.7448C11.5988 10.7448 11.1353 11.2083 11.1353 11.776V19.0781C11.1353 19.651 11.5988 20.1146 12.1665 20.1146C12.7394 20.1146 13.203 19.651 13.203 19.0781V11.776C13.203 11.2083 12.7394 10.7448 12.1665 10.7448Z" fill="#FF3131"/>
<path d="M16.9897 10.7448C16.422 10.7448 15.9585 11.2083 15.9585 11.776V19.0781C15.9585 19.651 16.422 20.1146 16.9897 20.1146C17.5627 20.1146 18.0262 19.651 18.0262 19.0781V11.776C18.0262 11.2083 17.5627 10.7448 16.9897 10.7448Z" fill="#FF3131"/>
</svg>
