<svg width="57" height="57" viewBox="0 0 57 57" fill="none" xmlns="http://www.w3.org/2000/svg">
<mask id="mask0_35_10758" style="mask-type:luminance" maskUnits="userSpaceOnUse" x="0" y="0" width="57" height="57">
<path d="M0.364502 0.953125H56.3385V56.9271H0.364502V0.953125Z" fill="white"/>
</mask>
<g mask="url(#mask0_35_10758)">
<path d="M28.3541 0.953125C36.0833 0.953125 43.078 4.08333 48.1405 9.15104C53.2083 14.2135 56.3385 21.2135 56.3385 28.9375C56.3385 36.6667 53.2083 43.6667 48.1405 48.7292C43.078 53.7917 36.0833 56.9271 28.3541 56.9271C20.6249 56.9271 13.6301 53.7969 8.56242 48.7292C3.49992 43.6615 0.364502 36.6667 0.364502 28.9375C0.364502 21.2135 3.49992 14.2135 8.56242 9.15104C13.6301 4.08333 20.6249 0.953125 28.3541 0.953125ZM47.2551 10.0365C42.4218 5.19792 35.7343 2.20313 28.3541 2.20313C20.9739 2.20313 14.2864 5.19792 9.44784 10.0365C4.60929 14.875 1.61971 21.5573 1.61971 28.9375C1.61971 36.3229 4.60929 43.0052 9.44784 47.8438C14.2864 52.6823 20.9687 55.6719 28.3541 55.6719C35.7343 55.6719 42.4218 52.6823 47.2551 47.8438C52.0937 43.0052 55.0885 36.3229 55.0885 28.9375C55.0885 21.5573 52.0989 14.875 47.2551 10.0365Z" fill="black"/>
</g>
<path fill-rule="evenodd" clip-rule="evenodd" d="M41.75 36.432H22.4843C22.2708 36.432 22.0833 36.2913 22.0312 36.0882L17.9114 21.083C17.875 20.9424 17.9062 20.7913 17.9948 20.6768C18.0833 20.557 18.2187 20.4893 18.3645 20.4893H24.8385C25.0937 20.4893 25.3073 20.7028 25.3073 20.958C25.3073 21.2184 25.0937 21.4268 24.8385 21.4268H18.9843L22.8385 35.4945H41.3906L45.25 21.4268H39.3958C39.1354 21.4268 38.927 21.2184 38.927 20.958C38.927 20.7028 39.1354 20.4893 39.3958 20.4893H45.8698C46.0104 20.4893 46.151 20.557 46.2395 20.6768C46.3281 20.7913 46.3593 20.9424 46.3229 21.083L42.2031 36.0882C42.1458 36.2965 41.9583 36.432 41.75 36.432Z" fill="black"/>
<path fill-rule="evenodd" clip-rule="evenodd" d="M42.776 32.6826H21.4531C21.1927 32.6826 20.9844 32.4743 20.9844 32.2139C20.9844 31.9535 21.1927 31.7451 21.4531 31.7451H42.776C43.0365 31.7451 43.2448 31.9535 43.2448 32.2139C43.25 32.4743 43.0365 32.6826 42.776 32.6826Z" fill="black"/>
<path fill-rule="evenodd" clip-rule="evenodd" d="M43.8073 28.9326H20.4219C20.1667 28.9326 19.9531 28.7191 19.9531 28.4639C19.9531 28.2035 20.1667 27.9951 20.4219 27.9951H43.8073C44.0677 27.9951 44.276 28.2035 44.276 28.4639C44.276 28.7243 44.0677 28.9326 43.8073 28.9326Z" fill="black"/>
<path fill-rule="evenodd" clip-rule="evenodd" d="M25.8749 25.1826H19.3958C19.1353 25.1826 18.927 24.9691 18.927 24.7139C18.927 24.4535 19.1353 24.2451 19.3958 24.2451H25.8749C26.1353 24.2451 26.3437 24.4535 26.3437 24.7139C26.3437 24.9691 26.1353 25.1826 25.8749 25.1826ZM44.8385 25.1826H38.3541C38.0989 25.1826 37.8853 24.9691 37.8853 24.7139C37.8853 24.4535 38.0989 24.2451 38.3541 24.2451H44.8385C45.0937 24.2451 45.3072 24.4535 45.3072 24.7139C45.302 24.9691 45.0937 25.1826 44.8385 25.1826Z" fill="black"/>
<path fill-rule="evenodd" clip-rule="evenodd" d="M27.297 36.4323C27.0678 36.4323 26.8647 36.2656 26.8334 36.0312L25.2918 24.776C25.2553 24.5156 25.4376 24.2812 25.6928 24.2448C25.948 24.2135 26.1876 24.3906 26.2188 24.6458L27.7605 35.901C27.797 36.1562 27.6199 36.3958 27.3595 36.4323C27.3386 36.4323 27.3178 36.4323 27.297 36.4323Z" fill="black"/>
<path fill-rule="evenodd" clip-rule="evenodd" d="M32.1145 36.432C31.8541 36.432 31.6458 36.2236 31.6458 35.9632V28.2393C31.6458 27.9788 31.8541 27.7705 32.1145 27.7705C32.3749 27.7705 32.5833 27.9788 32.5833 28.2393V35.9632C32.5833 36.2236 32.3749 36.432 32.1145 36.432Z" fill="black"/>
<path fill-rule="evenodd" clip-rule="evenodd" d="M36.9323 36.4323C36.9115 36.4323 36.8906 36.4323 36.8698 36.4323C36.6146 36.3958 36.4323 36.1615 36.4688 35.901L38.0104 24.6458C38.0469 24.3906 38.2865 24.2135 38.5417 24.2448C38.7969 24.2812 38.9792 24.5208 38.9427 24.776L37.3958 36.0312C37.3646 36.2656 37.1667 36.4323 36.9323 36.4323Z" fill="black"/>
<path fill-rule="evenodd" clip-rule="evenodd" d="M18.3646 21.4271C18.2031 21.4271 18.0521 21.349 17.9635 21.1979L15.9531 17.7813H15.0156C14.7552 17.7813 14.5469 17.5677 14.5469 17.3125C14.5469 17.0521 14.7552 16.8438 15.0156 16.8438H16.224C16.3906 16.8438 16.5469 16.9271 16.6302 17.0729L18.7708 20.724C18.901 20.9479 18.8281 21.2344 18.6042 21.3646C18.526 21.4063 18.4479 21.4271 18.3646 21.4271Z" fill="black"/>
<path fill-rule="evenodd" clip-rule="evenodd" d="M11.5729 17.0469C11.4323 17.0469 11.3073 17.1667 11.3073 17.3073C11.3073 17.4479 11.4271 17.5677 11.5729 17.5677H14.2865C14.4271 17.5677 14.5469 17.4479 14.5469 17.3073C14.5469 17.1667 14.4271 17.0469 14.2865 17.0469H11.5729ZM14.2865 18.5104H11.5729C10.9115 18.5104 10.375 17.9688 10.375 17.3073C10.375 16.6458 10.9115 16.1094 11.5729 16.1094H14.2865C14.9479 16.1094 15.4844 16.6458 15.4844 17.3073C15.4844 17.9688 14.9479 18.5104 14.2865 18.5104Z" fill="black"/>
<path fill-rule="evenodd" clip-rule="evenodd" d="M41.7499 39.4014H23.0833C22.0103 39.4014 21.1301 38.5264 21.1301 37.4482C21.1301 36.3701 22.0051 35.4951 23.0833 35.4951C23.3437 35.4951 23.552 35.7087 23.552 35.9639C23.552 36.2243 23.3437 36.4326 23.0833 36.4326C22.526 36.4326 22.0676 36.891 22.0676 37.4482C22.0676 38.0107 22.526 38.4639 23.0833 38.4639H41.7499C42.0103 38.4639 42.2187 38.6774 42.2187 38.9326C42.2187 39.193 42.0103 39.4014 41.7499 39.4014Z" fill="black"/>
<path fill-rule="evenodd" clip-rule="evenodd" d="M25.4999 40.7135C24.6666 40.7135 23.9895 41.3906 23.9895 42.224C23.9895 43.0573 24.6666 43.7344 25.4999 43.7344C26.3333 43.7344 27.0103 43.0573 27.0103 42.224C27.0103 41.3906 26.3333 40.7135 25.4999 40.7135ZM25.4999 44.6719C24.151 44.6719 23.052 43.5729 23.052 42.224C23.052 40.875 24.151 39.7812 25.4999 39.7812C26.8489 39.7812 27.9478 40.875 27.9478 42.224C27.9478 43.5729 26.8489 44.6719 25.4999 44.6719Z" fill="black"/>
<path fill-rule="evenodd" clip-rule="evenodd" d="M38.7293 40.7135C37.9012 40.7135 37.2189 41.3906 37.2189 42.224C37.2189 43.0573 37.896 43.7344 38.7293 43.7344C39.5627 43.7344 40.2397 43.0573 40.2397 42.224C40.2397 41.3906 39.5627 40.7135 38.7293 40.7135ZM38.7293 44.6719C37.3804 44.6719 36.2866 43.5729 36.2866 42.224C36.2866 40.875 37.3804 39.7812 38.7293 39.7812C40.0783 39.7812 41.1772 40.875 41.1772 42.224C41.1772 43.5729 40.0783 44.6719 38.7293 44.6719Z" fill="black"/>
<path fill-rule="evenodd" clip-rule="evenodd" d="M32.1145 14.1455C28.3593 14.1455 25.302 17.2028 25.302 20.958C25.302 24.7132 28.3593 27.7705 32.1145 27.7705C35.8697 27.7705 38.927 24.7132 38.927 20.958C38.927 17.2028 35.8697 14.1455 32.1145 14.1455ZM32.1145 28.708C27.8437 28.708 24.3645 25.234 24.3645 20.958C24.3645 16.6872 27.8385 13.208 32.1145 13.208C36.3853 13.208 39.8645 16.6872 39.8645 20.958C39.8645 25.234 36.3905 28.708 32.1145 28.708Z" fill="black"/>
<path d="M28.2709 21.9375C28.0834 21.75 27.7865 21.75 27.6042 21.9375C27.422 22.1198 27.422 22.4167 27.6042 22.599L29.5157 24.5104C29.7032 24.6927 30.0001 24.6927 30.1824 24.5104L36.6251 18.0677C36.8074 17.8854 36.8074 17.5885 36.6251 17.4062C36.4376 17.224 36.1407 17.224 35.9584 17.4062L29.849 23.5156L28.2709 21.9375Z" fill="black"/>
</svg>
