<svg width="40" height="29" viewBox="0 0 40 29" fill="none" xmlns="http://www.w3.org/2000/svg">
<mask id="mask0_35_10759" style="mask-type:luminance" maskUnits="userSpaceOnUse" x="0" y="0" width="37" height="29">
<path d="M0.494873 0.661133H37.0001V28.6455H0.494873V0.661133Z" fill="white"/>
</mask>
<g mask="url(#mask0_35_10759)">
<path d="M36.0053 13.7236C36.0886 13.8851 36.0209 14.0882 35.8594 14.1663L7.54694 28.5622C7.38548 28.6455 7.18757 28.5778 7.10423 28.4163L0.661524 15.5778C0.57819 15.4163 0.645898 15.2184 0.807357 15.1351L29.1199 0.739254C29.2813 0.66113 29.4792 0.723629 29.5626 0.885088L36.0053 13.7236Z" fill="#63A335"/>
</g>
<path d="M33.9635 13.349C34.0312 13.4844 33.9687 13.6511 33.8229 13.724L8.40099 26.6511C8.25516 26.724 8.08328 26.6719 8.01558 26.5417L2.70308 15.9584C2.63537 15.823 2.69787 15.6563 2.8437 15.5782L28.2656 2.6563C28.4114 2.58338 28.5833 2.63025 28.651 2.76567L33.9635 13.349Z" fill="#80CB4A"/>
<path d="M22.0105 12.7813C23.0366 14.8282 22.2241 17.3178 20.1928 18.3542C18.1616 19.3855 15.6824 18.5678 14.6564 16.5209C13.6303 14.4792 14.4428 11.9844 16.4741 10.9532C18.5053 9.91671 20.9845 10.7396 22.0105 12.7813Z" fill="#63A335"/>
<mask id="mask1_35_10759" style="mask-type:luminance" maskUnits="userSpaceOnUse" x="6" y="12" width="34" height="17">
<path d="M6.3335 12.8125H39.4741V28.6458H6.3335V12.8125Z" fill="white"/>
</mask>
<g mask="url(#mask1_35_10759)">
<path d="M39.3909 28.2708C39.3909 28.4531 39.245 28.5989 39.0627 28.5989H7.34399C7.1617 28.5989 7.01587 28.4531 7.01587 28.2708V13.8854C7.01587 13.7031 7.1617 13.5573 7.34399 13.5573H39.0627C39.245 13.5573 39.3909 13.7031 39.3909 13.8854V28.2708Z" fill="#70B747"/>
</g>
<path d="M37.7397 27.0052C37.7397 27.1563 37.6042 27.276 37.4428 27.276H8.96362C8.80216 27.276 8.66675 27.1563 8.66675 27.0052V15.151C8.66675 15 8.80216 14.875 8.96362 14.875H37.4428C37.6042 14.875 37.7397 15 37.7397 15.151V27.0052Z" fill="#8DD361"/>
<path d="M27.3231 21.0785C27.3231 23.3649 25.4793 25.2243 23.2033 25.2243C20.9272 25.2243 19.0835 23.3649 19.0835 21.0785C19.0835 18.7868 20.9272 16.9326 23.2033 16.9326C25.4793 16.9326 27.3231 18.7868 27.3231 21.0785Z" fill="#70B747"/>
</svg>
