<svg width="30" height="30" viewBox="0 0 30 30" fill="none" xmlns="http://www.w3.org/2000/svg">
<path d="M13.547 13.8805C13.0575 13.6774 12.8491 13.5316 12.8491 13.2399C12.8491 13.016 13.0158 12.7607 13.4481 12.7607C13.8075 12.7607 14.0366 12.8805 14.1512 12.9482L14.2918 12.5785C14.1304 12.4847 13.9012 12.391 13.5627 12.3805V11.8389H13.2137V12.4066C12.6981 12.4899 12.37 12.8441 12.37 13.3076C12.37 13.7972 12.7241 14.0576 13.297 14.2816C13.7085 14.4482 13.9272 14.641 13.9272 14.9482C13.9272 15.2712 13.6616 15.5003 13.2606 15.5003C12.9481 15.5003 12.6564 15.391 12.4533 15.2555L12.3179 15.6357C12.5158 15.7764 12.8491 15.8753 13.1772 15.8805V16.4482H13.5314V15.8649C14.1095 15.7712 14.4168 15.3545 14.4168 14.9118C14.4168 14.4118 14.1252 14.1149 13.547 13.8805Z" fill="#004AAD"/>
<path d="M13.3698 17.1663C11.6979 17.1663 10.3438 15.8122 10.3438 14.1403C10.3438 12.4736 11.6979 11.1195 13.3698 11.1195C15.0365 11.1195 16.3906 12.4736 16.3906 14.1403C16.3906 15.8122 15.0365 17.1663 13.3698 17.1663ZM18.2135 5.94238H8.53125V22.3486H18.2135V5.94238Z" fill="#004AAD"/>
<path d="M12.3283 4.90592H14.422C14.4741 4.90592 14.521 4.85905 14.521 4.80176V4.46322C14.521 4.40592 14.4741 4.36426 14.422 4.36426H12.3283C12.271 4.36426 12.2241 4.40592 12.2241 4.46322V4.80176C12.2241 4.85905 12.271 4.90592 12.3283 4.90592Z" fill="#004AAD"/>
<path d="M13.8856 22.875H12.8491C12.745 22.875 12.6616 22.9531 12.6616 23.0573V24.099C12.6616 24.2031 12.745 24.2813 12.8491 24.2813H13.8856C13.9897 24.2813 14.0731 24.2031 14.0731 24.099V23.0573C14.0731 22.9531 13.9897 22.875 13.8856 22.875Z" fill="#004AAD"/>
<mask id="mask0_35_10760" style="mask-type:luminance" maskUnits="userSpaceOnUse" x="0" y="0" width="30" height="30">
<path d="M0.510498 0.59375H29.4949V29.5781H0.510498V0.59375Z" fill="white"/>
</mask>
<g mask="url(#mask0_35_10760)">
<path d="M24.7345 19.3698C24.6459 20.9167 24.3074 22.3958 23.4272 23.6979C22.2032 25.5156 20.5105 26.5938 18.3334 26.8802C16.6615 27.099 15.1407 26.6563 13.7501 25.7292C13.5157 25.5729 13.2865 25.4063 13.0574 25.2396C13.0626 25.2292 13.0678 25.2188 13.073 25.2083C13.1199 25.2083 13.172 25.2083 13.224 25.2083C14.7292 25.2083 16.2397 25.2083 17.7449 25.2083C18.7345 25.2083 19.3959 24.5417 19.3959 23.5521C19.3959 20.9167 19.3959 18.2812 19.3959 15.6458C19.3959 15.5833 19.3959 15.5208 19.3959 15.4479C19.448 15.4583 19.4792 15.4635 19.5053 15.474C19.8282 15.6146 20.1303 15.401 20.0834 15.0469C20.0209 14.5938 19.9532 14.1406 19.8438 13.6979C19.6251 12.8281 19.3647 11.9688 19.1407 11.1042C18.9949 10.5469 18.9063 9.98437 18.9272 9.41146C18.9428 8.82813 19.099 8.28646 19.4428 7.80729C19.6042 7.57813 19.8126 7.45313 20.099 7.48958C20.3751 7.52083 20.5678 7.68229 20.6459 7.94271C20.7917 8.41667 20.9272 8.89063 21.0522 9.36458C21.3438 10.4948 21.8595 11.4948 22.6407 12.3698C23.5678 13.4167 24.1095 14.6563 24.4272 16.0052C24.6876 17.1146 24.8022 18.2344 24.7345 19.3698ZM8.94279 24.9063C8.27092 24.9063 7.75008 24.474 7.66154 23.8229C7.62508 23.5469 7.64591 23.2604 7.64591 22.9792V4.69792C7.64591 3.91146 8.18237 3.38021 8.97404 3.375H17.7813C18.5522 3.38021 19.0938 3.91667 19.0938 4.68229C19.0938 5.67708 19.0938 6.67187 19.0886 7.66667C19.0886 7.72917 19.0834 7.80208 19.0522 7.85417C18.6563 8.54167 18.5782 9.28125 18.6459 10.0469C18.7084 10.7031 18.8751 11.3333 19.0522 11.9688C19.0782 12.0573 19.0886 12.1458 19.0886 12.2344C19.0938 16.026 19.0938 19.8177 19.0938 23.6094C19.0938 24.3646 18.5574 24.9063 17.8022 24.9063C15.6511 24.9115 13.5001 24.9063 11.349 24.9063C10.547 24.9063 9.74487 24.9115 8.94279 24.9063ZM7.198 11.9167C6.66154 11.6406 6.18237 11.2813 5.81258 10.7969C5.58862 10.5 5.43237 10.1719 5.39591 9.79688C5.33862 9.07292 5.89071 8.57813 6.60946 8.72396C6.80216 8.76563 6.98967 8.84375 7.17196 8.91667C7.21883 8.93229 7.26571 9.00521 7.26571 9.05208C7.27091 10.0052 7.27091 10.9635 7.27091 11.9375C7.23446 11.9271 7.21362 11.9271 7.198 11.9167ZM7.2605 21.2708C7.25529 21.276 7.23966 21.2813 7.23966 21.276C6.78133 20.9271 6.39071 20.526 6.27612 19.9375C6.20321 19.5781 6.35425 19.25 6.68237 19.0938C6.85425 19.0104 7.05216 18.9688 7.2605 18.8958C7.2605 19.724 7.2605 20.5 7.2605 21.2708ZM6.57821 12.625C6.78654 12.5469 7.01571 12.5208 7.2605 12.4635C7.2605 13.3646 7.2605 14.2135 7.2605 15.0677C7.23967 15.0729 7.22404 15.0781 7.20841 15.0729C6.78133 14.9219 6.40112 14.7083 6.11466 14.3542C5.58862 13.7188 5.80737 12.9062 6.57821 12.625ZM6.48446 15.8542C6.71883 15.7031 6.97404 15.6198 7.2605 15.5781C7.2605 16.4531 7.2605 17.3125 7.2605 18.1719C6.698 18.0208 6.073 17.2917 6.04175 16.7396C6.02091 16.3594 6.16675 16.0625 6.48446 15.8542ZM15.073 0.59375C7.03133 0.59375 0.510498 7.11458 0.510498 15.1563C0.510498 23.1979 7.03133 29.7188 15.073 29.7188C23.1147 29.7188 29.6355 23.1979 29.6355 15.1563C29.6355 7.11458 23.1147 0.59375 15.073 0.59375Z" fill="#004AAD"/>
</g>
</svg>
