<svg xmlns="http://www.w3.org/2000/svg" xmlns:xlink="http://www.w3.org/1999/xlink" width="91" zoomAndPan="magnify" viewBox="0 0 68.25 65.249999" height="87" preserveAspectRatio="xMidYMid meet" version="1.0"><defs><g/><clipPath id="308d4782a1"><path d="M 2.355469 0 L 65.984375 0 L 65.984375 63.625 L 2.355469 63.625 Z M 2.355469 0 " clip-rule="nonzero"/></clipPath><clipPath id="53001c7acb"><path d="M 34.171875 0 C 16.601562 0 2.355469 14.242188 2.355469 31.8125 C 2.355469 49.382812 16.601562 63.625 34.171875 63.625 C 51.738281 63.625 65.984375 49.382812 65.984375 31.8125 C 65.984375 14.242188 51.738281 0 34.171875 0 Z M 34.171875 0 " clip-rule="nonzero"/></clipPath><clipPath id="6fbc4db0ec"><path d="M 0.015625 0 L 67.492188 0 L 67.492188 63 L 0.015625 63 Z M 0.015625 0 " clip-rule="nonzero"/></clipPath></defs><g clip-path="url(#308d4782a1)"><g clip-path="url(#53001c7acb)"><path fill="#ffc0cb" d="M 2.355469 0 L 65.984375 0 L 65.984375 63.625 L 2.355469 63.625 Z M 2.355469 0 " fill-opacity="1" fill-rule="nonzero"/></g></g><g clip-path="url(#6fbc4db0ec)"><path stroke-linecap="butt" transform="matrix(0.0949104, 0, 0, 0.0949104, 12.018467, 25.000233)" fill="none" stroke-linejoin="miter" d="M 65.698166 176.603256 C 53.474466 176.603256 43.514415 174.133822 35.818011 169.194953 C 28.121608 164.297242 22.524224 158.000185 19.025858 150.221467 C 15.527493 142.401592 13.757732 134.417087 13.757732 126.226797 C 13.757732 117.99535 15.404021 110.175474 18.737758 102.684857 C 21.989179 95.19424 26.639947 89.061811 32.648904 84.369886 C 38.657861 79.636804 45.654591 77.290841 53.680253 77.290841 C 56.643574 77.290841 58.125234 78.484401 58.125234 80.871521 C 58.125234 87.497836 61.006241 92.889435 66.727097 96.964001 C 72.406796 101.079725 79.362369 103.137587 87.593817 103.137587 C 96.93651 103.137587 106.937718 99.06302 117.556286 90.996202 C 128.133696 82.888226 136.941345 69.800224 143.979232 51.773354 C 146.572138 45.023567 149.206202 37.985679 151.881422 30.700848 C 154.638957 23.37486 157.27302 16.501601 159.865926 10.122229 C 161.882631 4.89526 164.516694 1.191109 167.768116 -1.031382 C 171.101852 -3.212716 174.970632 -4.323961 179.374457 -4.323961 C 185.753829 -4.323961 189.787238 -2.842301 191.515842 0.0798633 C 193.203289 2.96087 193.573704 6.911965 192.544773 11.891991 C 191.556999 16.707387 189.663766 22.675187 186.823917 29.754232 C 184.025225 36.833277 181.020746 44.241579 177.810482 51.937983 C 174.641374 59.634386 171.924997 66.960375 169.620191 73.833633 C 167.315386 80.706892 166.162983 86.468905 166.162983 91.119673 C 166.162983 94.864982 167.315386 98.116404 169.620191 100.873939 C 171.924997 103.549159 175.587991 104.907348 180.609174 104.907348 C 187.194332 104.907348 193.162131 102.6437 198.55373 98.157561 C 203.945328 93.671422 208.719567 87.74478 212.835291 80.377634 C 216.909858 72.928174 220.078965 64.737884 222.260299 55.765606 C 224.482789 46.711014 225.552878 37.82105 225.552878 29.013401 C 225.552878 20.411539 223.988903 12.550506 220.90211 5.34799 C 217.815317 -1.854527 212.423719 -7.740012 204.686158 -12.226151 C 197.030912 -16.753447 186.288873 -19.017095 172.460041 -19.017095 C 163.035033 -19.017095 154.021598 -17.45312 145.460893 -14.32517 C 136.85903 -11.279534 129.8623 -6.505295 124.429544 -0.0436084 C 119.037946 6.335763 116.362726 14.73184 116.362726 25.144621 C 116.362726 29.507288 117.473971 33.170282 119.655305 36.051289 C 121.877796 38.932296 124.553016 40.372799 127.804438 40.372799 C 129.985771 40.619743 130.520816 42.718762 129.40957 46.752171 C 128.339482 50.703266 125.952362 55.230562 122.207054 60.375217 C 118.502902 65.437557 113.76982 69.882539 107.925492 73.710162 C 102.163479 77.496628 95.701792 79.389861 88.458119 79.389861 C 80.267828 79.389861 73.353412 77.373156 67.714871 73.257432 C 62.158644 69.141708 57.960605 63.75011 55.120756 57.082638 C 52.363221 50.374008 50.963875 43.212649 50.963875 35.59856 C 50.963875 22.798659 53.803724 10.739588 59.52458 -0.660967 C 65.245436 -12.061522 73.312255 -22.186202 83.683879 -30.952694 C 94.09666 -39.8015 106.443831 -46.715916 120.684236 -51.695942 C 135.006954 -56.675968 150.770177 -59.186559 168.015059 -59.186559 C 187.194332 -59.186559 203.327969 -56.63481 216.415971 -51.531313 C 229.503972 -46.468973 239.999068 -39.472242 247.901258 -30.541122 C 255.803447 -21.651158 261.524303 -11.444163 264.981511 0.0798633 C 268.479877 11.562733 270.249638 23.704118 270.249638 36.504019 C 270.249638 52.514184 267.862518 68.277406 263.088279 83.793685 C 258.272882 99.268806 251.728881 113.262267 243.456276 125.774068 C 235.142514 138.285868 225.552878 148.287077 214.728524 155.777694 C 203.945328 163.268311 192.544773 167.01362 180.609174 167.01362 C 168.179688 167.01362 158.384266 163.268311 151.140592 155.777694 C 143.979232 148.287077 139.98698 138.327025 139.163835 125.897539 C 130.726602 141.496132 120.231506 153.843304 107.637391 162.980211 C 95.043277 172.07596 81.049816 176.603256 65.698166 176.603256 Z M 338.076766 176.603256 C 325.112236 176.603256 313.341266 173.928036 302.763856 168.618752 C 292.26876 163.350626 283.996155 155.448436 277.863727 144.95334 C 271.813613 134.458245 268.809135 121.493715 268.809135 106.059751 C 268.809135 94.288781 270.37311 84.411044 273.542217 76.385382 C 276.793639 68.400878 280.868205 61.939192 285.848231 57.082638 C 290.828257 52.143769 296.096383 48.604247 301.611453 46.505228 C 307.126523 44.406208 312.065392 43.377277 316.469216 43.377277 C 320.296839 43.377277 323.301317 44.076951 325.482651 45.476297 C 327.663985 46.9168 328.77523 48.727718 328.77523 50.909052 C 328.77523 53.131543 327.910928 55.024776 326.223481 56.629908 C 324.494877 58.193883 322.766273 60.251745 320.955355 62.762336 C 319.144436 65.272928 318.238977 69.306337 318.238977 74.862564 C 318.238977 82.888226 320.420311 89.308755 324.824135 94.124152 C 329.269117 98.898391 335.360388 101.285511 343.139106 101.285511 C 350.341623 101.285511 356.268265 99.021863 360.877876 94.412252 C 365.446329 89.843799 367.751134 83.834842 367.751134 76.385382 C 367.751134 70.582212 366.187159 64.820198 363.059209 59.058185 C 359.972416 53.213857 356.474051 47.081429 352.564114 40.578585 C 348.73649 34.034584 345.238125 27.037854 342.110175 19.547237 C 339.023382 12.056619 337.500564 3.784015 337.500564 -5.188263 C 337.500564 -14.407484 339.558426 -23.091662 343.632993 -31.281952 C 347.748717 -39.472242 354.086931 -46.139715 362.688794 -51.325527 C 371.290657 -56.552496 382.156167 -59.186559 395.367641 -59.186559 C 407.179768 -59.186559 416.604776 -57.128697 423.68382 -53.012973 C 430.84518 -48.89725 435.989835 -43.629123 439.158942 -37.12628 C 442.369206 -30.623436 443.974339 -23.791335 443.974339 -16.629975 C 443.974339 -7.575383 441.587219 0.820694 436.730665 8.640569 C 431.956425 16.419287 425.453582 22.387086 417.263291 26.585124 C 416.069731 28.190257 414.176498 28.519515 411.542435 27.531741 C 408.949529 26.543967 406.809353 24.85652 405.080749 22.551715 C 403.393302 20.288067 403.228673 18.230205 404.669177 16.419287 C 406.068523 14.608368 407.179768 12.180091 407.961756 9.093298 C 408.7849 5.965348 408.949529 2.755084 408.373328 -0.496338 C 407.920598 -3.830074 406.603567 -6.587609 404.504548 -8.768943 C 402.405528 -10.991434 399.277578 -12.061522 395.07954 -12.061522 C 390.099514 -12.061522 385.736847 -10.45639 382.032696 -7.246125 C 378.328544 -4.077018 376.476469 1.31458 376.476469 8.887512 C 376.270682 15.513827 378.040444 22.222457 381.744595 29.013401 C 385.448747 35.804346 389.770256 42.842233 394.750282 50.168222 C 399.730308 57.453053 404.134132 65.190613 407.961756 73.380904 C 411.748221 81.612351 413.682612 90.378843 413.682612 99.762693 C 413.682612 114.620456 410.43119 127.831929 403.928346 139.479428 C 397.425503 151.044612 388.535539 160.099204 377.176142 166.725519 C 365.899059 173.310677 352.893371 176.603256 338.076766 176.603256 Z M 338.076766 176.603256 " stroke="#cb7f00" stroke-width="38.25" stroke-opacity="1" stroke-miterlimit="4"/></g><g fill="#ffffff" fill-opacity="1"><g transform="translate(14.463893, 40.565539)"><g><path d="M 3.78125 1.203125 C 2.625 1.203125 1.679688 0.96875 0.953125 0.5 C 0.222656 0.03125 -0.304688 -0.570312 -0.640625 -1.3125 C -0.972656 -2.050781 -1.140625 -2.8125 -1.140625 -3.59375 C -1.140625 -4.363281 -0.984375 -5.101562 -0.671875 -5.8125 C -0.359375 -6.53125 0.0820312 -7.113281 0.65625 -7.5625 C 1.226562 -8.007812 1.890625 -8.234375 2.640625 -8.234375 C 2.929688 -8.234375 3.078125 -8.117188 3.078125 -7.890625 C 3.078125 -7.265625 3.347656 -6.753906 3.890625 -6.359375 C 4.429688 -5.972656 5.085938 -5.78125 5.859375 -5.78125 C 6.753906 -5.78125 7.703125 -6.160156 8.703125 -6.921875 C 9.710938 -7.691406 10.550781 -8.929688 11.21875 -10.640625 C 11.46875 -11.285156 11.71875 -11.953125 11.96875 -12.640625 C 12.226562 -13.335938 12.476562 -13.992188 12.71875 -14.609375 C 12.914062 -15.097656 13.171875 -15.445312 13.484375 -15.65625 C 13.796875 -15.863281 14.160156 -15.96875 14.578125 -15.96875 C 15.179688 -15.96875 15.5625 -15.828125 15.71875 -15.546875 C 15.882812 -15.273438 15.921875 -14.90625 15.828125 -14.4375 C 15.734375 -13.976562 15.550781 -13.410156 15.28125 -12.734375 C 15.019531 -12.066406 14.738281 -11.363281 14.4375 -10.625 C 14.132812 -9.894531 13.875 -9.203125 13.65625 -8.546875 C 13.4375 -7.898438 13.328125 -7.359375 13.328125 -6.921875 C 13.328125 -6.554688 13.4375 -6.242188 13.65625 -5.984375 C 13.875 -5.734375 14.21875 -5.609375 14.6875 -5.609375 C 15.3125 -5.609375 15.878906 -5.820312 16.390625 -6.25 C 16.910156 -6.675781 17.363281 -7.238281 17.75 -7.9375 C 18.132812 -8.644531 18.429688 -9.425781 18.640625 -10.28125 C 18.847656 -11.132812 18.953125 -11.976562 18.953125 -12.8125 C 18.953125 -13.625 18.804688 -14.367188 18.515625 -15.046875 C 18.222656 -15.734375 17.710938 -16.289062 16.984375 -16.71875 C 16.253906 -17.144531 15.234375 -17.359375 13.921875 -17.359375 C 13.023438 -17.359375 12.171875 -17.210938 11.359375 -16.921875 C 10.546875 -16.628906 9.878906 -16.175781 9.359375 -15.5625 C 8.847656 -14.957031 8.59375 -14.164062 8.59375 -13.1875 C 8.59375 -12.769531 8.695312 -12.421875 8.90625 -12.140625 C 9.113281 -11.867188 9.367188 -11.734375 9.671875 -11.734375 C 9.890625 -11.710938 9.941406 -11.507812 9.828125 -11.125 C 9.722656 -10.75 9.492188 -10.316406 9.140625 -9.828125 C 8.796875 -9.347656 8.347656 -8.925781 7.796875 -8.5625 C 7.242188 -8.207031 6.628906 -8.03125 5.953125 -8.03125 C 5.171875 -8.03125 4.515625 -8.222656 3.984375 -8.609375 C 3.453125 -9.003906 3.050781 -9.519531 2.78125 -10.15625 C 2.519531 -10.789062 2.390625 -11.46875 2.390625 -12.1875 C 2.390625 -13.394531 2.660156 -14.539062 3.203125 -15.625 C 3.742188 -16.707031 4.503906 -17.664062 5.484375 -18.5 C 6.472656 -19.332031 7.644531 -19.988281 9 -20.46875 C 10.363281 -20.945312 11.863281 -21.1875 13.5 -21.1875 C 15.320312 -21.1875 16.851562 -20.941406 18.09375 -20.453125 C 19.332031 -19.972656 20.328125 -19.304688 21.078125 -18.453125 C 21.828125 -17.609375 22.367188 -16.640625 22.703125 -15.546875 C 23.035156 -14.460938 23.203125 -13.3125 23.203125 -12.09375 C 23.203125 -10.582031 22.972656 -9.085938 22.515625 -7.609375 C 22.054688 -6.140625 21.429688 -4.8125 20.640625 -3.625 C 19.859375 -2.4375 18.953125 -1.488281 17.921875 -0.78125 C 16.898438 -0.0703125 15.820312 0.28125 14.6875 0.28125 C 13.507812 0.28125 12.578125 -0.0703125 11.890625 -0.78125 C 11.210938 -1.488281 10.835938 -2.429688 10.765625 -3.609375 C 9.960938 -2.128906 8.960938 -0.957031 7.765625 -0.09375 C 6.578125 0.769531 5.25 1.203125 3.78125 1.203125 Z M 3.78125 1.203125 "/></g></g></g><g fill="#ffffff" fill-opacity="1"><g transform="translate(37.640977, 40.565539)"><g><path d="M 6.46875 1.203125 C 5.226562 1.203125 4.109375 0.945312 3.109375 0.4375 C 2.117188 -0.0625 1.332031 -0.804688 0.75 -1.796875 C 0.175781 -2.796875 -0.109375 -4.03125 -0.109375 -5.5 C -0.109375 -6.613281 0.0390625 -7.550781 0.34375 -8.3125 C 0.644531 -9.070312 1.03125 -9.679688 1.5 -10.140625 C 1.976562 -10.609375 2.476562 -10.941406 3 -11.140625 C 3.519531 -11.335938 3.988281 -11.4375 4.40625 -11.4375 C 4.769531 -11.4375 5.054688 -11.367188 5.265625 -11.234375 C 5.472656 -11.109375 5.578125 -10.941406 5.578125 -10.734375 C 5.578125 -10.523438 5.492188 -10.34375 5.328125 -10.1875 C 5.171875 -10.039062 5.003906 -9.847656 4.828125 -9.609375 C 4.660156 -9.367188 4.578125 -8.984375 4.578125 -8.453125 C 4.578125 -7.691406 4.785156 -7.082031 5.203125 -6.625 C 5.628906 -6.175781 6.210938 -5.953125 6.953125 -5.953125 C 7.628906 -5.953125 8.1875 -6.171875 8.625 -6.609375 C 9.0625 -7.046875 9.28125 -7.613281 9.28125 -8.3125 C 9.28125 -8.863281 9.128906 -9.414062 8.828125 -9.96875 C 8.535156 -10.519531 8.203125 -11.101562 7.828125 -11.71875 C 7.460938 -12.332031 7.132812 -12.992188 6.84375 -13.703125 C 6.550781 -14.421875 6.40625 -15.207031 6.40625 -16.0625 C 6.40625 -16.925781 6.597656 -17.75 6.984375 -18.53125 C 7.378906 -19.3125 7.984375 -19.945312 8.796875 -20.4375 C 9.609375 -20.9375 10.644531 -21.1875 11.90625 -21.1875 C 13.019531 -21.1875 13.910156 -20.988281 14.578125 -20.59375 C 15.253906 -20.207031 15.742188 -19.703125 16.046875 -19.078125 C 16.359375 -18.460938 16.515625 -17.816406 16.515625 -17.140625 C 16.515625 -16.285156 16.285156 -15.488281 15.828125 -14.75 C 15.367188 -14.007812 14.753906 -13.4375 13.984375 -13.03125 C 13.867188 -12.882812 13.6875 -12.859375 13.4375 -12.953125 C 13.1875 -13.046875 12.976562 -13.203125 12.8125 -13.421875 C 12.65625 -13.640625 12.644531 -13.832031 12.78125 -14 C 12.914062 -14.175781 13.019531 -14.410156 13.09375 -14.703125 C 13.164062 -14.992188 13.175781 -15.296875 13.125 -15.609375 C 13.082031 -15.921875 12.960938 -16.179688 12.765625 -16.390625 C 12.566406 -16.609375 12.269531 -16.71875 11.875 -16.71875 C 11.394531 -16.71875 10.976562 -16.5625 10.625 -16.25 C 10.28125 -15.945312 10.109375 -15.4375 10.109375 -14.71875 C 10.085938 -14.09375 10.25 -13.457031 10.59375 -12.8125 C 10.945312 -12.164062 11.363281 -11.492188 11.84375 -10.796875 C 12.320312 -10.109375 12.738281 -9.375 13.09375 -8.59375 C 13.457031 -7.820312 13.640625 -6.988281 13.640625 -6.09375 C 13.640625 -4.6875 13.328125 -3.429688 12.703125 -2.328125 C 12.085938 -1.234375 11.242188 -0.375 10.171875 0.25 C 9.097656 0.882812 7.863281 1.203125 6.46875 1.203125 Z M 6.46875 1.203125 "/></g></g></g></svg>